<svg xmlns="http://www.w3.org/2000/svg" width="1200" height="630" viewBox="0 0 1200 630">
  <defs>
    <radialGradient id="glow" cx="0.18" cy="0.12" r="0.9">
      <stop offset="0" stop-color="#f7931a" stop-opacity="0.13"/>
      <stop offset="0.5" stop-color="#f7931a" stop-opacity="0.03"/>
      <stop offset="1" stop-color="#f7931a" stop-opacity="0"/>
    </radialGradient>
    <linearGradient id="cardline" x1="0" y1="0" x2="1" y2="0">
      <stop offset="0" stop-color="#f7931a" stop-opacity="0.0"/>
      <stop offset="0.35" stop-color="#f7931a" stop-opacity="0.55"/>
      <stop offset="1" stop-color="#f7931a" stop-opacity="0.0"/>
    </linearGradient>
  </defs>

  <!-- background -->
  <rect width="1200" height="630" fill="#0b0b0a"/>
  <rect width="1200" height="630" fill="url(#glow)"/>
  <rect x="0" y="626" width="1200" height="4" fill="#f7931a"/>
  <rect x="0" y="0" width="1200" height="2" fill="url(#cardline)"/>

  <!-- logo mark: the real Bitcoin logo on the brand tile (matches the favicon exactly, scaled 2.375x from its 32px source) -->
  <g transform="translate(64,58) scale(2.375)">
    <rect width="32" height="32" rx="7" fill="#f7931a"/>
    <path fill="#fff" transform="translate(16,16) scale(0.62) translate(-32,-32)" d="m46.103,27.444c0.637-4.258-2.605-6.547-7.038-8.074l1.438-5.768-3.511-0.875-1.4,5.616c-0.923-0.23-1.871-0.447-2.813-0.662l1.41-5.653-3.509-0.875-1.439,5.766c-0.764-0.174-1.514-0.346-2.242-0.527l0.004-0.018-4.842-1.209-0.934,3.75s2.605,0.597,2.55,0.634c1.422,0.355,1.679,1.296,1.636,2.042l-1.638,6.571c0.098,0.025,0.225,0.061,0.365,0.117-0.117-0.029-0.242-0.061-0.371-0.092l-2.296,9.205c-0.174,0.432-0.615,1.08-1.609,0.834,0.035,0.051-2.552-0.637-2.552-0.637l-1.743,4.019,4.569,1.139c0.85,0.213,1.683,0.436,2.503,0.646l-1.453,5.834,3.507,0.875,1.439-5.772c0.958,0.26,1.888,0.5,2.798,0.726l-1.434,5.745,3.511,0.875,1.453-5.823c5.987,1.133,10.489,0.676,12.384-4.739,1.527-4.36-0.076-6.875-3.226-8.515,2.294-0.529,4.022-2.038,4.483-5.155zm-8.022,11.249c-1.085,4.36-8.426,2.003-10.806,1.412l1.928-7.729c2.38,0.594,10.012,1.77,8.878,6.317zm1.086-11.312c-0.99,3.966-7.1,1.951-9.082,1.457l1.748-7.01c1.982,0.494,8.365,1.416,7.334,5.553z"/>
  </g>

  <!-- wordmark -->
  <text x="164" y="102" font-family="Helvetica Neue, Arial, sans-serif" font-size="42" font-weight="800" letter-spacing="-1" fill="#f6f5f1">bitcoin<tspan fill="#f7931a" font-family="Menlo, monospace" font-weight="700">4</tspan>plebs</text>
  <text x="166" y="130" font-family="Menlo, monospace" font-size="15" letter-spacing="4.5" fill="#908e86">DON'T TRUST. VERIFY.</text>

  <!-- headline -->
  <text x="64" y="266" font-family="Helvetica Neue, Arial, sans-serif" font-size="64" font-weight="800" letter-spacing="-1.5" fill="#f6f5f1">Understand Bitcoin's code.</text>
  <text x="64" y="342" font-family="Helvetica Neue, Arial, sans-serif" font-size="64" font-weight="800" letter-spacing="-1.5" fill="#f6f5f1">No engineering degree <tspan fill="#f7931a">required.</tspan></text>

  <!-- subline -->
  <text x="64" y="398" font-family="Helvetica Neue, Arial, sans-serif" font-size="24" fill="#c6c4b9">Read the real source. Run the real math. Take nobody's word for it.</text>

  <!-- mini code card -->
  <g transform="translate(64,442)">
    <rect x="0" y="0" width="1072" height="118" rx="16" fill="#111110" stroke="rgba(255,255,255,0.14)" stroke-width="1.5"/>
    <rect x="0" y="0" width="1072" height="38" rx="16" fill="#161615"/>
    <rect x="0" y="22" width="1072" height="16" fill="#161615"/>
    <line x1="0" y1="38" x2="1072" y2="38" stroke="rgba(255,255,255,0.1)"/>
    <text x="20" y="25" font-family="Menlo, monospace" font-size="14" fill="#c6c4b9">src/validation.cpp · lines 1846–1857 · pinned @ 18c05d9</text>
    <text x="962" y="25" font-family="Menlo, monospace" font-size="12" font-weight="bold" letter-spacing="1" fill="#2fbf4f">REAL SOURCE</text>

    <text x="20" y="64" font-family="Menlo, monospace" font-size="16" fill="#55534e">1853</text>
    <text x="76" y="64" font-family="Menlo, monospace" font-size="16" fill="#e8e6df">CAmount nSubsidy = 50 * COIN;</text>

    <rect x="6" y="74" width="1060" height="26" fill="rgba(247,147,26,0.09)"/>
    <rect x="6" y="74" width="4" height="26" fill="#f7931a"/>
    <text x="20" y="92" font-family="Menlo, monospace" font-size="16" fill="#55534e">1855</text>
    <text x="76" y="92" font-family="Menlo, monospace" font-size="16" fill="#e8e6df">nSubsidy &gt;&gt;= halvings;  <tspan fill="#908e86">// the entire 21M cap, right there</tspan></text>
  </g>

  <!-- stats row -->
  <text x="64" y="600" font-family="Menlo, monospace" font-size="17" fill="#908e86">19 quests · 32 interactive figures · 101-term glossary · <tspan fill="#f7931a">every excerpt CI-verified against the pinned sources</tspan></text>
</svg>
